[Header]
FileType HTR
DataType HTRS
FileVersion 1
NumSegments 48
NumFrames 4
DataFrameRate 30
EulerRotationOrder ZYX
CalibrationUnits mm
RotationUnits Degrees
GlobalAxisofGravity Y
BoneLengthAxis Y
ScaleFactor 1.0
[SegmentNames&Hierarchy]
Wolf	GLOBAL
Becken	Wolf
Bauch	Becken
Bauch_001	Bauch
Brust	Bauch_001
Hals	Brust
Kopf_002	Hals
Kopf	Kopf_002
Unterkiefer	Kopf
Hals_fett	Unterkiefer
Maulunten	Unterkiefer
Mauloben	Kopf
MundW_L	Kopf
MundW_R	Kopf
Augen_con	Kopf
IK_Aug_R	Augen_con
IK_Aug_L	Augen_con
Aug_R	Kopf
aug_L	Kopf
Ohr_L	Kopf
Ohr_R	Kopf
Braun_O_L	Kopf
Braun_O_R	Kopf
aug_lied_O_L	Kopf
aug_lied_O_R	Kopf
aug_lied_U_L	Kopf
aug_lied_U_R	Kopf
Bauch_003	Brust
Schalterplatte_L	Bauch_003
Oberarm_L	Schalterplatte_L
Unterarm_L	Oberarm_L
Vorderpfote_L	Unterarm_L
Schalterplatte_R	Bauch_003
Oberarm_R	Schalterplatte_R
Unterarm_R	Oberarm_R
Vorderpfote_R	Unterarm_R
Schwanz	Becken
Schwanz_001	Schwanz
Schwanz_002	Schwanz_001
Schwanz_003	Schwanz_002
Oberschenkel_L	Becken
Unterschenkel_L	Oberschenkel_L
Pfote1_L	Unterschenkel_L
Pfote2_L	Pfote1_L
Oberschenkel_R	Becken
Unterschenkel_R	Oberschenkel_R
Pfote1_R	Unterschenkel_R
Pfote2_R	Pfote1_R
[BasePosition]
Wolf	0	0	0	0	0	0	1
Becken	0	0	0	0	0	0	1
Bauch	0	0	0	0	0	0	1
Bauch_001	0	0	0	0	0	0	1
Brust	0	0	0	0	0	0	1
Hals	0	0	0	0	0	0	1
Kopf_002	0	0	0	0	0	0	1
Kopf	0	0	0	0	0	0	1
Unterkiefer	0	0	0	0	0	0	1
Hals_fett	0	0	0	0	0	0	1
Maulunten	0	0	0	0	0	0	1
Mauloben	0	0	0	0	0	0	1
MundW_L	0	0	0	0	0	0	1
MundW_R	0	0	0	0	0	0	1
Augen_con	0	0	0	0	0	0	1
IK_Aug_R	0	0	0	0	0	0	1
IK_Aug_L	0	0	0	0	0	0	1
Aug_R	0	0	0	0	0	0	1
aug_L	0	0	0	0	0	0	1
Ohr_L	0	0	0	0	0	0	1
Ohr_R	0	0	0	0	0	0	1
Braun_O_L	0	0	0	0	0	0	1
Braun_O_R	0	0	0	0	0	0	1
aug_lied_O_L	0	0	0	0	0	0	1
aug_lied_O_R	0	0	0	0	0	0	1
aug_lied_U_L	0	0	0	0	0	0	1
aug_lied_U_R	0	0	0	0	0	0	1
Bauch_003	0	0	0	0	0	0	1
Schalterplatte_L	0	0	0	0	0	0	1
Oberarm_L	0	0	0	0	0	0	1
Unterarm_L	0	0	0	0	0	0	1
Vorderpfote_L	0	0	0	0	0	0	1
Schalterplatte_R	0	0	0	0	0	0	1
Oberarm_R	0	0	0	0	0	0	1
Unterarm_R	0	0	0	0	0	0	1
Vorderpfote_R	0	0	0	0	0	0	1
Schwanz	0	0	0	0	0	0	1
Schwanz_001	0	0	0	0	0	0	1
Schwanz_002	0	0	0	0	0	0	1
Schwanz_003	0	0	0	0	0	0	1
Oberschenkel_L	0	0	0	0	0	0	1
Unterschenkel_L	0	0	0	0	0	0	1
Pfote1_L	0	0	0	0	0	0	1
Pfote2_L	0	0	0	0	0	0	1
Oberschenkel_R	0	0	0	0	0	0	1
Unterschenkel_R	0	0	0	0	0	0	1
Pfote1_R	0	0	0	0	0	0	1
Pfote2_R	0	0	0	0	0	0	1
[Wolf]
121	0	0	0	-90	-0	0	1.0
122	0	0	0	-90	-0	0	1.0
123	0	0	0	-90	-0	0	1.0
124	0	0	0	-90	-0	0	1.0
[Becken]
121	0	0.9494202137	-2.415239573	8.113015042e-07	210.8870087	90	1.0
122	0	0.9133242369	-2.138823509	8.113015042e-07	207.0426636	90	1.0
123	0	0.8701241612	-1.808203936	8.113015042e-07	202.404007	90	1.0
124	0	0.8212881684	-1.434563875	8.113015042e-07	197.1289825	90	1.0
[Bauch]
121	0.8294533491	7.099878729e-08	-0.525180757	-9.673251498e-07	41.53864288	-1.068382929e-07	1.0
122	0.8398154974	7.099878729e-08	-0.5093802214	-9.673251498e-07	38.84749603	-1.068382929e-07	1.0
123	0.8522081375	7.099878729e-08	-0.490468502	-9.673251498e-07	35.61472702	-1.068382929e-07	1.0
124	0.866448164	7.099878729e-08	-0.4687410891	-9.673251498e-07	31.95003128	-1.068382929e-07	1.0
[Bauch_001]
121	0.7623747587	8.168100152e-08	-0.03763301298	-1.782821641e-07	-15.13864994	-3.672270932e-09	1.0
122	0.7922124267	8.168100152e-08	-0.03465808555	-1.782821641e-07	-13.50697231	-3.672270932e-09	1.0
123	0.8279033899	8.168100152e-08	-0.03016503341	-1.782821641e-07	-11.55205345	-3.672270932e-09	1.0
124	0.8682478666	8.168100152e-08	-0.02516593784	-1.782821641e-07	-9.340065002	-3.672270932e-09	1.0
[Brust]
121	0.9041372538	8.077002889e-08	-0.03146863729	-1.076636636e-06	-9.751227379	-2.124970933e-06	1.0
122	0.9196102023	8.077002889e-08	-0.02897658199	-1.076636636e-06	-7.376028538	-2.124970933e-06	1.0
123	0.9381199479	8.077002889e-08	-0.02521852776	-1.076636636e-06	-4.52543211	-2.124970933e-06	1.0
124	0.9593865275	8.077002889e-08	-0.02103847638	-1.076636636e-06	-1.296084881	-2.124970933e-06	1.0
[Hals]
121	1.013990879	9.497803433e-08	0.2914986312	-4.618911134e-06	22.06642342	-2.002489964e-06	1.0
122	1.036779404	9.497803433e-08	0.3210475743	-4.618911134e-06	24.37656784	-2.002489964e-06	1.0
123	1.064037442	9.497803433e-08	0.3564019203	-4.618911134e-06	27.14860916	-2.002489964e-06	1.0
124	1.094848394	9.497803433e-08	0.3963615	-4.618911134e-06	30.28856659	-2.002489964e-06	1.0
[Kopf_002]
121	1.752595305	3.013231981e-05	0.265181601	0.006653485354	-165.1497192	0.002557621105	1.0
122	1.752595305	3.013231981e-05	0.265181601	0.006653485354	-165.1497192	0.002557621105	1.0
123	1.752595305	3.013231981e-05	0.265181601	0.006653485354	-165.1497192	0.002557621105	1.0
124	1.752595305	3.013231981e-05	0.265181601	0.006653485354	-165.1497192	0.002557621105	1.0
[Kopf]
121	1.015781879	7.661583368e-08	5.763315869e-08	-0.02625739388	96.97168732	-0.117639482	1.0
122	1.015781879	7.661583368e-08	5.763315869e-08	-0.006064894609	98.4878006	-0.09763681144	1.0
123	1.015781879	7.661583368e-08	5.763315869e-08	0.01087791566	100.3039017	-0.08092132211	1.0
124	1.015781879	7.661583368e-08	5.763315869e-08	0.02458843961	102.3585281	-0.06746903807	1.0
[Unterkiefer]
121	0.637044847	0.00455273781	0.4060620368	5.412722588	-68.3888092	-3.093543291	1.0
122	0.637044847	0.00455273781	0.4060620368	5.412722588	-68.3888092	-3.093543291	1.0
123	0.637044847	0.00455273781	0.4060620368	5.412722588	-68.3888092	-3.093543291	1.0
124	0.637044847	0.00455273781	0.4060620368	5.412722588	-68.3888092	-3.093543291	1.0
[Hals_fett]
121	0.2998302579	0.007747155149	0.1206375211	-5.071650982	-59.35961151	5.585565567	1.0
122	0.2998302579	0.007747155149	0.1206375211	-5.071650982	-59.35961151	5.585565567	1.0
123	0.2998302579	0.007747155149	0.1206375211	-5.071650982	-59.35961151	5.585565567	1.0
124	0.2998302579	0.007747155149	0.1206375211	-5.071650982	-59.35961151	5.585565567	1.0
[Maulunten]
121	0.08317930996	-0.007747315802	-0.120645985	-3.322209358	38.97270584	-0.8718757033	1.0
122	0.08317930996	-0.007747315802	-0.120645985	-3.322209358	38.97270584	-0.8718757033	1.0
123	0.08317930996	-0.007747315802	-0.120645985	-3.322209358	38.97270584	-0.8718757033	1.0
124	0.08317930996	-0.007747315802	-0.120645985	-3.322209358	38.97270584	-0.8718757033	1.0
[Mauloben]
121	0.9101490974	0.0004056774778	0.4003698826	-0.1032676771	-28.7776947	0.03543145955	1.0
122	0.9101490974	0.0004056774778	0.4003698826	-0.1032676771	-28.7776947	0.03543145955	1.0
123	0.9101490974	0.0004056774778	0.4003698826	-0.1032676771	-28.7776947	0.03543145955	1.0
124	0.9101490974	0.0004056774778	0.4003698826	-0.1032676771	-28.7776947	0.03543145955	1.0
[MundW_L]
121	0.673060894	-0.3618556559	0.3751283586	-179.8370972	-17.94885445	24.713974	1.0
122	0.673060894	-0.3618556559	0.3751283586	-179.8370972	-17.94885445	24.713974	1.0
123	0.673060894	-0.3618556559	0.3751283586	-179.8370972	-17.94885445	24.713974	1.0
124	0.673060894	-0.3618556559	0.3751283586	-179.8370972	-17.94885445	24.713974	1.0
[MundW_R]
121	0.6732422113	0.362703532	0.3739836812	179.665329	-18.02427101	-24.69083595	1.0
122	0.6732422113	0.362703532	0.3739836812	179.665329	-18.02427101	-24.69083595	1.0
123	0.6732422113	0.362703532	0.3739836812	179.665329	-18.02427101	-24.69083595	1.0
124	0.6732422113	0.362703532	0.3739836812	179.665329	-18.02427101	-24.69083595	1.0
[Augen_con]
121	1.807373524	-0.0001604080026	0.1835817248	0.09822228551	157.1545258	0.02385942452	1.0
122	1.807373524	-0.0001604080026	0.1835817248	0.09822228551	157.1545258	0.02385942452	1.0
123	1.807373524	-0.0001604080026	0.1835817248	0.09822228551	157.1545258	0.02385942452	1.0
124	1.807373524	-0.0001604080026	0.1835817248	0.09822228551	157.1545258	0.02385942452	1.0
[IK_Aug_R]
121	0.3461307585	0.2943200171	-1.058367616e-07	-0.4194758832	-4.963055134	165.6946411	1.0
122	0.3461307585	0.2943200171	-1.058367616e-07	-0.4194758832	-4.963055134	165.6946411	1.0
123	0.3461307585	0.2943200171	-1.058367616e-07	-0.4194758832	-4.963055134	165.6946411	1.0
124	0.3461307585	0.2943200171	-1.058367616e-07	-0.4194758832	-4.963055134	165.6946411	1.0
[IK_Aug_L]
121	0.3461304903	-0.2943199575	-2.746332939e-08	0.4194765091	-4.963055611	-165.6946411	1.0
122	0.3461304903	-0.2943199575	-2.746332939e-08	0.4194765091	-4.963055611	-165.6946411	1.0
123	0.3461304903	-0.2943199575	-2.746332939e-08	0.4194765091	-4.963055611	-165.6946411	1.0
124	0.3461304903	-0.2943199575	-2.746332939e-08	0.4194765091	-4.963055611	-165.6946411	1.0
[Aug_R]
121	1.035155058	0.2207805961	-0.09605777264	176.004776	-17.29166603	12.85548115	1.0
122	1.035155058	0.2207805961	-0.09605777264	176.004776	-17.29166603	12.85548115	1.0
123	1.035155058	0.2207805961	-0.09605777264	176.004776	-17.29166603	12.85548115	1.0
124	1.035155058	0.2207805961	-0.09605777264	176.004776	-17.29166603	12.85548115	1.0
[aug_L]
121	1.035044312	-0.2215988934	-0.09535890818	-176.1891022	-17.3318119	-12.83103085	1.0
122	1.035044312	-0.2215988934	-0.09535890818	-176.1891022	-17.3318119	-12.83103085	1.0
123	1.035044312	-0.2215988934	-0.09535890818	-176.1891022	-17.3318119	-12.83103085	1.0
124	1.035044312	-0.2215988934	-0.09535890818	-176.1891022	-17.3318119	-12.83103085	1.0
[Ohr_L]
121	0.640776813	-0.365999192	-0.6893324256	-24.34924316	53.07765961	-15.02013206	1.0
122	0.640776813	-0.365999192	-0.6893324256	-24.34924316	53.07765961	-15.02013206	1.0
123	0.640776813	-0.365999192	-0.6893324256	-24.34924316	53.07765961	-15.02013206	1.0
124	0.640776813	-0.365999192	-0.6893324256	-24.34924316	53.07765961	-15.02013206	1.0
[Ohr_R]
121	0.6409582496	0.3634999394	-0.6904847622	24.05786514	53.12416458	14.75857353	1.0
122	0.6409582496	0.3634999394	-0.6904847622	24.05786514	53.12416458	14.75857353	1.0
123	0.6409582496	0.3634999394	-0.6904847622	24.05786514	53.12416458	14.75857353	1.0
124	0.6409582496	0.3634999394	-0.6904847622	24.05786514	53.12416458	14.75857353	1.0
[Braun_O_L]
121	0.9801892042	-0.3706049621	-0.3292512298	-143.317215	-34.69636154	52.39493561	1.0
122	0.9801892042	-0.3706049621	-0.3292512298	-143.317215	-34.69636154	52.39493561	1.0
123	0.9801892042	-0.3706049621	-0.3292512298	-143.317215	-34.69636154	52.39493561	1.0
124	0.9801892042	-0.3706049621	-0.3292512298	-143.317215	-34.69636154	52.39493561	1.0
[Braun_O_R]
121	0.9803638458	0.369074285	-0.3304226696	143.1826782	-34.83971405	-52.3467598	1.0
122	0.9803638458	0.369074285	-0.3304226696	143.1826782	-34.83971405	-52.3467598	1.0
123	0.9803638458	0.369074285	-0.3304226696	143.1826782	-34.83971405	-52.3467598	1.0
124	0.9803638458	0.369074285	-0.3304226696	143.1826782	-34.83971405	-52.3467598	1.0
[aug_lied_O_L]
121	1.038891912	-0.3271433413	-0.1608080417	-175.8613434	-20.1559639	60.31666946	1.0
122	1.038891912	-0.3271433413	-0.1608080417	-175.8613434	-20.1559639	60.31666946	1.0
123	1.038891912	-0.3271433413	-0.1608080417	-175.8613434	-20.1559639	60.31666946	1.0
124	1.038891912	-0.3271433413	-0.1608080417	-175.8613434	-20.1559639	60.31666946	1.0
[aug_lied_O_R]
121	1.039044738	0.3261157572	-0.1618430018	175.7657928	-20.31323814	-60.31218338	1.0
122	1.039044738	0.3261157572	-0.1618430018	175.7657928	-20.31323814	-60.31218338	1.0
123	1.039044738	0.3261157572	-0.1618430018	175.7657928	-20.31323814	-60.31218338	1.0
124	1.039044738	0.3261157572	-0.1618430018	175.7657928	-20.31323814	-60.31218338	1.0
[aug_lied_U_L]
121	1.021916389	-0.3312866092	-0.133848846	-159.8099365	-28.7482872	60.17461395	1.0
122	1.021916389	-0.3312866092	-0.133848846	-159.8099365	-28.7482872	60.17461395	1.0
123	1.021916389	-0.3312866092	-0.133848846	-159.8099365	-28.7482872	60.17461395	1.0
124	1.021916389	-0.3312866092	-0.133848846	-159.8099365	-28.7482872	60.17461395	1.0
[aug_lied_U_R]
121	1.022078514	0.3303526342	-0.134884432	159.7071381	-28.90532303	-60.15359116	1.0
122	1.022078514	0.3303526342	-0.134884432	159.7071381	-28.90532303	-60.15359116	1.0
123	1.022078514	0.3303526342	-0.134884432	159.7071381	-28.90532303	-60.15359116	1.0
124	1.022078514	0.3303526342	-0.134884432	159.7071381	-28.90532303	-60.15359116	1.0
[Bauch_003]
121	1.276869178	9.640096721e-08	-0.607956171	-3.938862392e-06	-137.6799469	1.017604518e-05	1.0
122	1.276869178	9.640096721e-08	-0.607956171	-3.938862392e-06	-137.6799469	1.017604518e-05	1.0
123	1.276869178	9.640096721e-08	-0.607956171	-3.938862392e-06	-137.6799469	1.017604518e-05	1.0
124	1.276869178	9.640096721e-08	-0.607956171	-3.938862392e-06	-137.6799469	1.017604518e-05	1.0
[Schalterplatte_L]
121	0.892570734	-0.3820799589	-2.353006607e-07	5.945403576	68.57108307	-17.4299469	1.0
122	0.892570734	-0.3820799589	-2.353006607e-07	7.102806568	66.77310181	-16.44992256	1.0
123	0.892570734	-0.3820799589	-2.353006607e-07	7.941287041	65.09077454	-15.86809444	1.0
124	0.892570734	-0.3820799589	-2.353006607e-07	8.381041527	63.80613708	-15.73983097	1.0
[Oberarm_L]
121	1.41863656	-1.373700798e-07	-9.313225746e-08	-78.49620819	-64.76309967	87.42043304	1.0
122	1.41863656	-1.373700798e-07	-9.313225746e-08	-72.01306915	-63.55246353	79.62258911	1.0
123	1.41863656	-1.373700798e-07	-9.313225746e-08	-65.82239532	-61.84639359	72.04694366	1.0
124	1.41863656	-1.373700798e-07	-9.313225746e-08	-60.60486603	-59.92681503	65.52883148	1.0
[Unterarm_L]
121	2.028227091	1.303851604e-07	-3.434251994e-07	4.919220448	47.66923523	5.594489574	1.0
122	2.028227091	1.303851604e-07	-3.434251994e-07	3.805743456	44.36456299	4.294694901	1.0
123	2.028227091	1.303851604e-07	-3.434251994e-07	2.842581034	40.97904205	3.186213732	1.0
124	2.028227091	1.303851604e-07	-3.434251994e-07	2.074532509	38.00082016	2.300105095	1.0
[Vorderpfote_L]
121	1.705947638	9.313225746e-08	2.281740308e-07	-2.318342924	65.70886993	0.0004616520018	1.0
122	1.705947638	9.313225746e-08	2.281740308e-07	-2.558194876	65.52444458	-0.3925479949	1.0
123	1.705947638	9.313225746e-08	2.281740308e-07	-2.763084173	65.5644455	-0.7606450915	1.0
124	1.705947638	9.313225746e-08	2.281740308e-07	-2.93063736	66.09035492	-1.099573851	1.0
[Schalterplatte_R]
121	0.892570734	0.3820800483	-2.117341893e-07	0.4793464243	66.63787079	30.73171616	1.0
122	0.892570734	0.3820800483	-2.117341893e-07	-0.971424818	64.86440277	28.87137604	1.0
123	0.892570734	0.3820800483	-2.117341893e-07	-2.082093954	63.24451447	27.36182022	1.0
124	0.892570734	0.3820800483	-2.117341893e-07	-2.782137632	62.03235626	26.32565689	1.0
[Oberarm_R]
121	1.418636322	9.080395103e-08	-2.305023372e-07	77.26148224	-53.02767944	-90.00827026	1.0
122	1.418636322	9.080395103e-08	-2.305023372e-07	72.78844452	-52.62900543	-83.96536255	1.0
123	1.418636322	9.080395103e-08	-2.305023372e-07	68.17445374	-51.91642761	-77.71008301	1.0
124	1.418636322	9.080395103e-08	-2.305023372e-07	63.97351837	-51.01550293	-71.9601059	1.0
[Unterarm_R]
121	2.028232098	7.450580597e-08	-3.958120942e-08	-0.5908625126	46.56697083	-0.4431225955	1.0
122	2.028232098	7.450580597e-08	-3.958120942e-08	-0.1486162692	43.27961731	0.08136604726	1.0
123	2.028232098	7.450580597e-08	-3.958120942e-08	0.2241458446	39.92033005	0.5224822164	1.0
124	2.028232098	7.450580597e-08	-3.958120942e-08	0.5252065063	36.99372101	0.880818367	1.0
[Vorderpfote_R]
121	1.705937862	1.210719205e-07	-8.381903172e-08	2.208827972	64.76908875	0.7470336556	1.0
122	1.705937862	1.210719205e-07	-8.381903172e-08	2.398908854	64.62145996	1.058288932	1.0
123	1.705937862	1.210719205e-07	-8.381903172e-08	2.58656168	64.68317413	1.378924966	1.0
124	1.705937862	1.210719205e-07	-8.381903172e-08	2.788286448	65.24207306	1.722301364	1.0
[Schwanz]
121	-0.003105252981	-2.110689845e-09	0.003438331187	-2.620213309e-06	-196.890564	9.3831095e-06	1.0
122	-0.005069285631	-2.110689845e-09	0.01481363922	-2.620213309e-06	-192.4493103	9.3831095e-06	1.0
123	-0.008100917563	-2.110689845e-09	0.0284252055	-2.620213309e-06	-187.0743103	9.3831095e-06	1.0
124	-0.0114884153	-2.110689845e-09	0.04406246915	-2.620213309e-06	-180.9489136	9.3831095e-06	1.0
[Schwanz_001]
121	0.9104328752	6.873576552e-08	-9.313230187e-09	5.759830515e-07	-16.37188148	-3.817856964e-08	1.0
122	0.9104328752	6.873576552e-08	-9.313230187e-09	5.759830515e-07	-15.55161667	-3.817856964e-08	1.0
123	0.9104328752	6.873576552e-08	-9.313230187e-09	5.759830515e-07	-14.56996727	-3.817856964e-08	1.0
124	0.9104328752	6.873576552e-08	-9.313230187e-09	5.759830515e-07	-13.4601202	-3.817856964e-08	1.0
[Schwanz_002]
121	0.7855662107	5.930859004e-08	3.725289943e-08	1.063837431e-06	2.41518116	-1.28896616e-07	1.0
122	0.7855662107	5.930859004e-08	3.725289943e-08	1.063837431e-06	0.9013143778	-1.28896616e-07	1.0
123	0.7855662107	5.930859004e-08	3.725289943e-08	1.063837431e-06	-0.912058115	-1.28896616e-07	1.0
124	0.7855662107	5.930859004e-08	3.725289943e-08	1.063837431e-06	-2.963580847	-1.28896616e-07	1.0
[Schwanz_003]
121	0.8350355029	6.304340872e-08	-9.313230187e-09	8.881865483e-07	-11.6031208	-9.02429278e-08	1.0
122	0.8350355029	6.304340872e-08	-9.313230187e-09	8.881865483e-07	-11.6031208	-9.02429278e-08	1.0
123	0.8350355029	6.304340872e-08	-9.313230187e-09	8.881865483e-07	-11.6031208	-9.02429278e-08	1.0
124	0.8350355029	6.304340872e-08	-9.313230187e-09	8.881865483e-07	-11.6031208	-9.02429278e-08	1.0
[Oberschenkel_L]
121	0.03288890421	-0.5837000012	0.09713187814	10.33886719	-28.22467995	-3.126960754	1.0
122	0.08052189648	-0.5837000012	0.09921067208	10.75538445	-34.40782166	-3.909178972	1.0
123	0.1375087649	-0.5837000012	0.101289466	11.29442215	-40.38502502	-4.784908772	1.0
124	0.2019162625	-0.5837000012	0.1033682674	11.89958763	-45.6325531	-5.674502373	1.0
[Unterschenkel_L]
121	1.686439037	1.234002411e-07	4.656610209e-09	-0.03257692233	-157.5521851	-7.179941177	1.0
122	1.686439037	1.234002411e-07	4.656610209e-09	-1.505249143	-155.7029724	-9.264413834	1.0
123	1.686439037	1.234002411e-07	4.656610209e-09	-0.5935212374	-149.8147736	-9.129707336	1.0
124	1.686439037	1.234002411e-07	4.656610209e-09	2.207534552	-140.0023804	-8.889626503	1.0
[Pfote1_L]
121	1.190900445	1.862644972e-08	2.56113708e-08	13.00052357	129.8305511	1.264534235	1.0
122	1.190900445	1.862644972e-08	2.56113708e-08	13.41708851	126.9159698	1.79295516	1.0
123	1.190900445	1.862644972e-08	2.56113708e-08	14.64429092	120.950882	3.242930889	1.0
124	1.190900445	1.862644972e-08	2.56113708e-08	18.94417	111.7537231	7.878311634	1.0
[Pfote2_L]
121	0.9876260757	1.490116119e-07	4.889443872e-08	175.4727783	148.994873	206.615036	1.0
122	0.9876260757	1.490116119e-07	4.889443872e-08	178.3044739	138.130661	207.7224731	1.0
123	0.9876260757	1.490116119e-07	4.889443872e-08	179.8479309	128.2651672	204.8083344	1.0
124	0.9876260757	1.490116119e-07	4.889443872e-08	180.3954163	119.3467178	199.9454193	1.0
[Oberschenkel_R]
121	0.03288891912	0.5837000608	0.09713176638	-10.22386837	-26.01779938	2.874724627	1.0
122	0.08052178472	0.5837000608	0.09921058267	-10.51968861	-31.10697556	3.48017478	1.0
123	0.1375086159	0.5837000608	0.1012893841	-10.92051697	-36.42877579	4.18998003	1.0
124	0.2019161284	0.5837000608	0.1033682004	-11.42782402	-41.70299911	4.991201878	1.0
[Unterschenkel_R]
121	1.686449051	1.431908458e-07	-1.396983951e-08	9.199497223	-157.8366699	4.27009058	1.0
122	1.686449051	1.431908458e-07	-1.396983951e-08	9.669228554	-156.1779785	5.305461884	1.0
123	1.686449051	1.431908458e-07	-1.396983951e-08	8.420255661	-150.4707794	5.849031448	1.0
124	1.686449051	1.431908458e-07	-1.396983951e-08	5.457735538	-140.7761536	6.447784901	1.0
[Pfote1_R]
121	1.190900326	7.101335342e-08	-4.307366908e-08	6.837694168	127.0084229	12.28217888	1.0
122	1.190900326	7.101335342e-08	-4.307366908e-08	7.577487946	122.0566254	13.17232037	1.0
123	1.190900326	7.101335342e-08	-4.307366908e-08	9.526774406	114.5527649	15.34300041	1.0
124	1.190900326	7.101335342e-08	-4.307366908e-08	18.1523056	104.9514008	24.24933434	1.0
[Pfote2_R]
121	0.9876257181	1.071020961e-07	3.49246001e-08	-178.652832	148.8961487	-204.7187805	1.0
122	0.9876257181	1.071020961e-07	3.49246001e-08	-182.6946106	137.4141083	-205.9189453	1.0
123	0.9876257181	1.071020961e-07	3.49246001e-08	-186.8587799	126.5675812	-206.4747314	1.0
124	0.9876257181	1.071020961e-07	3.49246001e-08	-190.436142	116.795639	-206.0318909	1.0
[EndOfFile]
